<?xml version="1.0" encoding="utf-8"?>
<!-- Generator: Adobe Illustrator 22.0.1, SVG Export Plug-In . SVG Version: 6.00 Build 0)  -->
<svg version="1.1" id="Layer_1" xmlns="http://www.w3.org/2000/svg" xmlns:xlink="http://www.w3.org/1999/xlink" x="0px" y="0px"
	 viewBox="0 0 100 60" style="enable-background:new 0 0 100 60;" xml:space="preserve">
<style type="text/css">
	.st0{fill:#01B2DB;}
	.st1{fill:#FFFFFF;}
	.st2{fill:#015C7B;}
	.st3{fill:#FFFFFF;stroke:#000000;stroke-width:0.5;stroke-miterlimit:10;}
	.st4{fill:none;stroke:#000000;stroke-width:0.5;stroke-miterlimit:10;}
</style>
<g>
	<g>
		<g>
			<path class="st0" d="M17.9,44.9c-2.3-2.1-3.5-4.8-3.5-7.9c0-2.4,0.8-4.7,2.5-6.7c1.7-2,4-3.6,7.1-4.7c-4.5-1-6.8-3.2-6.8-6.8
				c0-2.6,1.4-5,4.1-7.1c2.7-2.1,5.8-3.2,9.3-3.2c1.4,0,3.2,0.4,5.4,1.1c0.6,0.2,1.1,0.4,1.6,0.5c-3.8-3.9-9-6.4-14.7-6.4
				c-11.6,0-20.9,9.9-20.9,22.2s9.4,22.2,20.9,22.2c0.7,0,1.4,0,2.1-0.1C22.1,47.7,19.8,46.6,17.9,44.9z"/>
			<path class="st0" d="M36.9,13.2c-1.5,0-3.3-0.4-5.4-1.1c-2.1-0.7-3.7-1.1-4.9-1.1c-1.8,0-3.2,0.6-4.3,1.8
				c-1.1,1.2-1.6,2.7-1.6,4.7c0,2,0.6,3.6,1.8,4.9c1.2,1.2,2.7,1.8,4.5,1.8c0.8,0,1.9-0.2,3.3-0.5l0.2,1.2c-3.8,0.5-6.7,1.8-8.9,3.9
				c-2.1,2.2-3.2,4.8-3.2,7.9c0,2.9,0.9,5.3,2.6,7.1c1.8,1.8,4,2.7,6.8,2.7c2.9,0,5.5-1,7.6-3.1c2.1-2.1,3.2-4.4,3.2-7
				c0-1.8-0.5-3.3-1.6-4.6c-1.1-1.3-2.3-1.9-3.8-1.9c-1.2,0-2.3,0.4-3.2,1.3c-0.9,0.9-1.4,1.9-1.4,2.9c0,0.8,0.2,1.4,0.7,2
				c0.5,0.5,1,0.8,1.7,0.8c0.8,0,1.4-0.4,2-1.1l0.7,0.4c-0.5,2.1-1.7,3.2-3.6,3.2c-1,0-1.8-0.3-2.4-1c-0.6-0.7-0.9-1.6-0.9-2.7
				c0-2,0.8-3.7,2.5-5.3c1.7-1.6,3.6-2.3,5.9-2.3c1.9,0,3.4,0.6,4.5,1.8c1.1,1.2,1.7,2.7,1.7,4.4c0,0.8-0.1,1.5-0.2,2.3
				c1.6-3.1,2.5-6.8,2.5-10.6c0-4.9-1.5-9.4-4-13.1C38.9,13.1,37.9,13.2,36.9,13.2z"/>
		</g>
	</g>
	<path class="st1" d="M37,24.2h6.6v1.6H37V24.2z"/>
	<path d="M61.4,15.4v15.9h-1.7v-14h-0.3l-4.3,13.4h-1.9l-4.3-13.4h-0.3v14h-1.7V15.4h3l4.2,13.4l4.2-13.4H61.4z"/>
	<path d="M65.2,30.1c-0.7-0.9-1-2.3-1-4.3c0-2.1,0.4-3.7,1.1-4.7c0.7-1,1.9-1.5,3.5-1.5c1.4,0,2.5,0.4,3.2,1.3
		c0.7,0.9,1.1,2.2,1.1,4L73,26.2h-7.1c0,0.9,0.1,1.7,0.3,2.2c0.2,0.5,0.5,0.9,1,1.2c0.5,0.2,1.1,0.4,2,0.4c0.4,0,0.9,0,1.4,0
		c0.5,0,1-0.1,1.5-0.1l0.6-0.1l0,1.4c-1.6,0.2-2.9,0.4-4,0.4C67.1,31.5,65.9,31,65.2,30.1z M71.4,24.9c0-1.4-0.2-2.4-0.6-3
		c-0.4-0.6-1.1-0.9-2.1-0.9c-1,0-1.7,0.3-2.2,0.9s-0.7,1.6-0.7,2.9H71.4z"/>
	<path d="M76,30.1c-0.6-0.9-0.9-2.4-0.9-4.3c0-2.2,0.4-3.8,1.1-4.7c0.7-1,1.9-1.4,3.5-1.4c0.8,0,1.7,0.1,2.6,0.3v-5.1h1.6v16.5h-1.6
		v-0.8c-1.1,0.7-2.2,1-3.4,1C77.6,31.5,76.6,31,76,30.1z M80.6,29.8c0.5-0.1,0.9-0.3,1.3-0.4l0.4-0.2v-7.8c-0.9-0.2-1.8-0.3-2.4-0.3
		c-1.1,0-1.9,0.4-2.4,1.1c-0.5,0.7-0.7,1.9-0.7,3.5c0,1.5,0.2,2.6,0.6,3.3c0.4,0.7,1,1.1,1.9,1.1C79.7,30,80.1,29.9,80.6,29.8z"/>
	<path d="M92.4,30.9c-0.6-0.4-1.1-1-1.4-1.9c-0.3-0.9-0.4-2-0.4-3.5c0-1.8,0.3-3.3,0.9-4.4c0.6-1.1,1.7-1.6,3.4-1.6
		c0.4,0,0.9,0,1.3,0.1c0.5,0,1.1,0.1,1.9,0.3L98,21.3c-1.1-0.1-2-0.2-2.6-0.2c-0.8,0-1.5,0.1-1.9,0.4c-0.4,0.3-0.8,0.7-0.9,1.4
		c-0.2,0.6-0.3,1.5-0.3,2.7c0,1.1,0.1,2,0.3,2.6c0.2,0.6,0.5,1.1,0.9,1.4c0.5,0.3,1.1,0.4,2,0.4l2.6-0.2l0.1,1.4
		c-1.4,0.2-2.4,0.3-3.1,0.3C93.9,31.5,93,31.3,92.4,30.9z"/>
	<path class="st2" d="M89.5,31.3c-0.4,0.1-0.8,0.1-0.9-0.2l-1.4-4.5c-0.1-0.2,0.2-0.5,0.6-0.7"/>
	<path class="st0" d="M87.9,26L87.9,26c0.4-0.1,0.8-0.1,0.9,0.2l1.4,4.5c0.1,0.2-0.2,0.5-0.6,0.7l0,0"/>
	<path class="st2" d="M86.1,20c-0.4,0.1-0.9-0.1-1-0.5c-0.1-0.4,0.1-0.9,0.5-1.1"/>
	<path class="st0" d="M85.6,18.4c0.4-0.1,0.9,0.1,1,0.5c0.1,0.4-0.1,0.9-0.5,1.1"/>
	<path class="st3" d="M88.7,25.9l-1.5,0.5l-1.3-4.4c-0.1-0.4,0.1-0.9,0.5-1.1c0.1,0,0.2,0,0.2,0c0.3,0,0.7,0.2,0.8,0.6L88.7,25.9z"
		/>
	<path class="st4" d="M89.5,31.3c-0.4,0.1-0.9-0.1-1-0.6l-1.3-4.4l1.5-0.5l1.3,4.4C90.1,30.7,89.9,31.2,89.5,31.3z"/>
	<g>
		<path d="M85.8,18.4c0.3,0,0.7,0.2,0.8,0.6c0.1,0.4-0.1,0.9-0.5,1.1c-0.1,0-0.2,0-0.2,0c-0.3,0-0.7-0.2-0.8-0.6
			c-0.1-0.4,0.1-0.9,0.5-1.1C85.7,18.4,85.7,18.4,85.8,18.4 M85.8,18.1L85.8,18.1c-0.1,0-0.2,0-0.3,0.1c-0.5,0.2-0.9,0.8-0.7,1.4
			c0.1,0.5,0.5,0.8,1,0.8c0.1,0,0.2,0,0.3-0.1c0.5-0.2,0.9-0.8,0.7-1.4C86.7,18.4,86.3,18.1,85.8,18.1L85.8,18.1z"/>
	</g>
</g>
</svg>
